<?xml version="1.0" encoding="UTF-8" standalone="no"?>
<!-- Created with Inkscape (http://www.inkscape.org/) -->

<svg
   version="1.1"
   id="svg173"
   width="1024"
   height="1024"
   viewBox="0 0 1024 1024"
   xmlns="http://www.w3.org/2000/svg"
   xmlns:svg="http://www.w3.org/2000/svg">
  <defs
     id="defs177" />
  <g
     id="g179">
    <path
       style="fill:#000000"
       d="M 169,780 V 674 h 13.01595 13.01595 l -0.26595,88.34657 -0.26595,88.34657 -5.5,5.96708 c -4.58932,4.97906 -15.32947,22.13665 -14.48514,23.14028 0.33026,0.39256 15.31266,-8.56669 22.98514,-13.74479 l 6,-4.04934 47.82493,-0.003 47.82492,-0.003 7.17508,5.05158 C 314.84804,873.05223 327,880.94155 327,880.47429 c 0,-0.18202 -1.51325,-2.9507 -3.36277,-6.15262 -1.84952,-3.20192 -4.59534,-8.00499 -6.10183,-10.6735 -1.50648,-2.66851 -4.49324,-6.60601 -6.63723,-8.75 L 307,851 v -25.05542 -25.05542 l 5,-2.0779 c 2.75,-1.14285 5,-2.46188 5,-2.93117 0,-0.46929 1.575,-1.51133 3.5,-2.31564 3.60949,-1.50814 4.64028,-4.18965 2,-5.20282 -0.83666,-0.32106 -1.5,-1.80766 -1.5,-3.36163 0,-1.55397 0.66334,-3.04057 1.5,-3.36163 1.86671,-0.71632 1.96694,-4.26221 0.15091,-5.33868 -0.74201,-0.43983 -1.65058,-2.03719 -2.01906,-3.54969 -0.66965,-2.74874 -0.66743,-2.75 4.8491,-2.75 H 331 v 39.83969 c 0,21.91183 0.29601,48.01183 0.65781,58 L 332.31561,886 H 250.65781 169 Z m 42.89481,95.62675 c 2.28604,-2.75452 -1.15587,-6.31344 -4.94331,-5.11136 -2.08779,0.66264 -3.11894,2.88469 -2.31313,4.98461 0.72209,1.88173 5.72737,1.96916 7.25644,0.12675 z m 86.15044,-0.18128 c 1.07699,-1.29769 0.94704,-1.89763 -0.78657,-3.63124 -3.58252,-3.58252 -10.31357,0.005 -7.15349,3.81252 1.5365,1.85137 6.34421,1.7416 7.94006,-0.18128 z m -14.62704,-0.0525 C 284.2882,875.05917 285,874.20731 285,873.5 c 0,-0.70731 -0.7118,-1.55917 -1.58179,-1.89301 -2.50677,-0.96194 -61.76364,-0.67424 -63.31393,0.3074 -0.76764,0.48607 -1.11926,1.60418 -0.78138,2.48469 0.54497,1.42018 4.1085,1.60092 31.56393,1.60092 17.02228,0 31.6614,-0.27314 32.53138,-0.60699 z m -98.65713,-68.7772 c 0.26397,-42.34812 0.0454,-45.24625 -3.31503,-43.95674 -1.17972,0.45271 -1.41031,7.49961 -1.42373,43.5097 l -0.016,42.96951 2.24684,-0.31914 2.24684,-0.3191 0.26108,-41.88419 z m 137.03948,35.2986 c 0.39316,-4.6902 -2.26619,-7.36569 -4.40877,-4.43553 -1.47136,2.0122 -1.87701,6.70257 -0.68294,7.89664 0.38987,0.38986 1.62737,0.57736 2.75,0.41666 1.5511,-0.22203 2.11331,-1.15302 2.34171,-3.87777 z m 0.014,-16.24251 c 0.17298,-2.09631 -0.1089,-4.34257 -0.62642,-4.99169 -0.52064,-0.65303 -0.58085,-2.07358 -0.13481,-3.18021 0.44337,-1.1 0.83776,-4.5875 0.87641,-7.75 0.067,-5.47685 -0.0478,-5.75 -2.41565,-5.75 h -2.48595 l 0.10378,12.25 c 0.0571,6.7375 0.31771,12.61242 0.57918,13.05537 0.26147,0.44295 1.22095,0.66421 2.13217,0.49168 1.12576,-0.21315 1.75757,-1.53528 1.97129,-4.12515 z M 185.52417,753.88994 C 186.26647,750.51031 184.72726,748 181.91274,748 c -3.89578,0 -4.52732,5.26586 -1.10895,9.24647 1.89021,2.2011 3.79762,0.8448 4.72038,-3.35653 z m -1.0956,-13.46137 c 1.85966,-1.85966 2.07045,-6.52955 0.37143,-8.22857 -2.86941,-2.86941 -6.8,-0.17416 -6.8,4.66283 0,2.01952 2.42752,5.13717 4,5.13717 0.47143,0 1.56429,-0.70714 2.42857,-1.57143 z M 185.5,720 c 0,-3.22222 -0.2381,-3.5 -3,-3.5 -2.37782,0 -3.06825,0.48172 -3.32908,2.32273 -0.54116,3.81961 0.54826,5.3422 3.57339,4.99424 C 185.16663,723.53835 185.5,723.07658 185.5,720 Z m -0.66251,-31.8784 c 0.73562,-0.46628 1.18562,-1.92189 1,-3.23469 -0.26973,-1.90768 -0.93706,-2.38691 -3.32379,-2.38691 -2.0858,0 -3.09133,0.54532 -3.33458,1.80841 -0.77682,4.03373 2.1736,6.02203 5.65837,3.81319 z M 580.5,885.31745 c -9.13349,-1.1657 -29.52997,-5.77185 -38.58638,-8.71399 C 511.6187,866.7616 485.50943,851.01382 462.18877,828.51749 440.90905,807.98995 426.08743,787.19051 415.04732,762.36303 408.27131,747.12484 401,723.60976 401,716.93462 401,716.40313 406.59899,716 413.98095,716 c 12.65824,0 12.99243,0.0559 13.44271,2.25 3.09001,15.05653 6.70061,25.85125 13.12589,39.24294 16.7477,34.90586 45.6788,64.90805 79.45045,82.39186 21.10002,10.92363 36.83564,16.25101 59.34937,20.09306 C 590.80085,861.9321 595.32365,862 714.03861,862 h 122.83986 l 7.4964,5.25 c 4.12302,2.8875 10.42453,7.09655 14.00335,9.35345 l 6.50694,4.10344 -2.57935,-5.10344 c -3.9157,-7.74751 -8.56916,-14.70727 -13.68508,-20.46751 L 844,849.93324 V 840.46662 831 h 13 13 v 27.5 27.5 l -143.25,-0.14983 c -78.7875,-0.0824 -144.6,-0.32213 -146.25,-0.53272 z m 54.56574,-8.35263 c 2.73326,-1.4628 2.42988,-4.78188 -0.56168,-6.14492 -2.06233,-0.93966 -2.84409,-0.82215 -4.5,0.67642 -2.41557,2.18606 -2.47712,2.88777 -0.43263,4.93225 1.84273,1.84273 2.86643,1.94264 5.49431,0.53625 z m 14,0 c 2.51521,-1.3461 2.47932,-4.60275 -0.0657,-5.96482 -4.2831,-2.29225 -8.43062,3.48491 -4.25,5.9199 2.1956,1.27882 2.01371,1.27693 4.31574,0.0449 z M 819.39402,875.75 c 1.42367,-2.27371 -0.26499,-5.1264 -3.30119,-5.57676 -4.16058,-0.61715 -6.71364,3.80595 -3.84985,6.66974 1.6853,1.6853 5.80578,1.05552 7.15104,-1.09298 z m 14.03455,0.67857 c 2.14841,-2.14841 1.98127,-3.11393 -0.86151,-4.97659 -1.89255,-1.24005 -2.89207,-1.34841 -4.5,-0.48787 -2.52439,1.35101 -2.69577,4.57032 -0.31706,5.95579 2.46862,1.43784 3.87071,1.31653 5.67857,-0.49133 z m -28.32045,-1.13619 c 0.94283,-0.94322 0.92686,-1.54531 -0.0729,-2.75 -1.13203,-1.36402 -9.621,-1.54061 -73.40761,-1.52707 -40.01071,0.009 -72.74904,0.40884 -73.52328,0.89908 -0.76764,0.48607 -1.1238,1.59236 -0.79146,2.45842 0.76358,1.98985 10.2456,2.22101 88.88768,2.16689 43.70256,-0.0301 57.99334,-0.33266 58.90762,-1.24732 z M 589.5,873.5329 c 0,-1.71359 -1.28874,-2.18244 -10,-3.6381 -23.90253,-3.99411 -39.95673,-9.08643 -59.38471,-18.83656 -21.29589,-10.68756 -35.90213,-21.17989 -52.90601,-38.00482 -8.89269,-8.79909 -11.35587,-10.20872 -12.00389,-6.86963 -0.72392,3.73011 22.12371,24.63527 40.71417,37.25272 10.66024,7.23517 33.44322,18.40126 47.08044,23.07445 12.27785,4.20735 36.74382,9.5035 42.5,9.19997 3.23955,-0.17083 4,-0.5849 4,-2.17803 z m 270.19053,-28.16882 c 0.90925,-2.36947 -1.03236,-4.86408 -3.78582,-4.86408 -2.44841,0 -3.58585,2.28259 -2.52067,5.05841 0.76019,1.98103 5.52811,1.8341 6.30649,-0.19433 z m -406,-46 c 0.90925,-2.36947 -1.03236,-4.86408 -3.78582,-4.86408 -2.72109,0 -3.74779,2.77923 -1.86484,5.04804 1.61729,1.94872 4.87295,1.84272 5.65066,-0.18396 z m -8.62096,-9.9479 c 1.77644,-2.14049 -0.0104,-4.91618 -3.16486,-4.91618 -2.72109,0 -3.74779,2.77923 -1.86484,5.04804 1.56829,1.88967 3.39165,1.84187 5.0297,-0.13186 z M 598,848.30504 c -16.57953,-1.77581 -45.54126,-8.71532 -50.89343,-12.19455 -1.09601,-0.71247 -0.14631,-2.42175 4.44944,-8.00815 3.21358,-3.90629 5.99682,-7.10234 6.18497,-7.10234 0.18815,0 4.86941,1.57585 10.4028,3.5019 13.71604,4.77424 27.99301,7.52924 42.60622,8.22163 l 12.25,0.58042 0.0136,5.59803 c 0.008,3.07891 0.285,6.61052 0.61664,7.84802 0.60117,2.24326 0.56895,2.24952 -10.76366,2.08996 -6.25165,-0.088 -12.94163,-0.32873 -14.86663,-0.53492 z m 40.91667,-1.71849 c -0.22917,-0.2274 -0.2642,-3.1524 -0.0778,-6.5 L 639.17764,834 H 644.08882 649 v 6.5 6.5 h -4.83333 c -2.65834,0 -5.02084,-0.18605 -5.25,-0.41345 z M 664,839.89301 c 0,-6.0698 0.23084,-7.0184 1.58179,-6.5 0.86998,0.33385 7.16998,0.60699 14,0.60699 H 692 v 6.5 6.5 H 678 664 Z M 711,840 v -6 h 6.5 6.5 v 6 6 h -6.5 -6.5 z m 37,0 v -6 h 5.5 5.5 v 6 6 h -5.5 -5.5 z m 38,0.5 V 835 h 4.5 4.5 v 5.5 5.5 h -4.5 -4.5 z m 30.63171,-0.24933 0.13172,-5.75067 4.61828,-0.30479 L 826,833.89042 V 839.94521 846 l -4.75,6.7e-4 -4.75,6.8e-4 z M 212,839.5 V 834 h 4.5 4.5 v 5.5 5.5 h -4.5 -4.5 z m 33,0 V 834 h 4.5 4.5 v 5.5 5.5 h -4.5 -4.5 z m 35,0 V 834 h 4.40745 4.40745 l 0.34255,5.50136 0.34255,5.50137 -4.75,-0.001 L 280,845 Z M 520.20586,824.52086 C 514.41082,821.20772 504,813.86031 504,813.08361 504,812.27984 518.6387,799 519.52472,799 c 0.3666,0 1.97351,0.93064 3.57091,2.06809 L 526,803.13619 v 11.9319 c 0,6.56255 -0.3375,11.92649 -0.75,11.91986 -0.4125,-0.007 -2.68236,-1.11681 -5.04414,-2.46709 z m 117.035,-4.51546 c -9.59728,-5.85153 -9.57314,-19.77265 0.0422,-24.33544 10.38904,-4.92992 21.51578,2.27099 20.3876,13.19428 -0.54168,5.24464 -3.11111,9.02299 -7.74175,11.38421 -4.48935,2.28917 -8.66611,2.20916 -12.68806,-0.24305 z M 816,807.60699 C 816,793.20306 816.0766,793 821.51036,793 826.25586,793 827,795.11075 827,808.57143 V 821 H 821.5 816 Z M 674.63486,817.92742 C 672.28825,816.08158 672,815.16801 672,809.57664 c 0,-7.31065 1.45714,-12.21574 4.03944,-13.59775 3.54117,-1.89517 9.61258,-1.14258 12.86577,1.59481 6.28087,5.285 6.25811,14.58676 -0.0487,19.89357 -3.87958,3.26446 -10.38881,3.47507 -14.22166,0.46015 z m 10.99334,-8.5822 C 686.56502,805.61266 684.89222,803.5 681,803.5 c -4.43262,0 -5.93544,2.4234 -3.65813,5.89901 2.42325,3.69835 7.35264,3.66635 8.28633,-0.0538 z m 22.85067,7.33365 c -4.35484,-4.35484 -5.35226,-9.41564 -2.91913,-14.81136 2.90686,-6.44626 10.72473,-8.84025 17.47299,-5.35058 C 726.63996,798.3823 729,802.72607 729,807.5 c 0,7.63817 -5.07588,12.5 -13.05034,12.5 -3.36657,0 -4.7764,-0.62674 -7.47079,-3.32113 z m 12.92475,-7.86912 C 722.61229,805.35217 720.79409,803 716.91274,803 c -4.35219,0 -6.3109,4.45898 -3.28702,7.48286 2.45478,2.45478 6.65041,1.55225 7.7779,-1.67311 z m 24.35895,9.62486 C 742.09207,816.44302 740,812.09195 740,806.44966 c 0,-3.95452 0.50832,-5.15798 3.4,-8.04966 2.99487,-2.99487 4.01961,-3.4 8.6,-3.4 4.55618,0 5.6112,0.4112 8.52113,3.32113 5.91552,5.91552 5.61436,13.86274 -0.72756,19.19912 -3.43491,2.89028 -9.64369,3.29489 -14.031,0.91436 z M 755.8,810.8 c 0.66,-0.66 1.2,-2.145 1.2,-3.3 0,-2.87369 -1.86658,-4.5 -5.16482,-4.5 -1.77125,0 -3.16235,0.74281 -3.87107,2.06706 -2.33241,4.35814 4.33364,9.23519 7.83589,5.73294 z m 23.84477,6.19296 c -5.96557,-5.23783 -5.73552,-14.21448 0.49871,-19.46023 2.34679,-1.9747 4.11673,-2.53273 8.03325,-2.53273 4.35602,0 5.46442,0.44115 8.3444,3.32113 8.50465,8.50465 3.30089,21.67887 -8.56306,21.67887 -4.00823,0 -5.50517,-0.54147 -8.3133,-3.00704 z m 12.30955,-6.43792 c 1.55377,-1.87218 0.98651,-5.57461 -1.04954,-6.85017 -0.87738,-0.54966 -2.78302,-0.70126 -4.23477,-0.33689 -3.06835,0.7701 -4.57972,4.83096 -2.65923,7.14501 1.57609,1.89907 6.38124,1.92451 7.94354,0.0421 z M 215.25,817.16051 211,815.56167 V 794.78083 774 h 6.5 6.5 v 13.34912 c 0,7.34202 0.28338,16.7015 0.62973,20.79884 0.52741,6.23918 0.3533,7.72615 -1.07143,9.15088 -1.99442,1.99442 -2.66895,1.98319 -8.3083,-0.13833 z M 602,817.88216 c -8.10773,-0.92793 -24.84331,-4.9542 -30.61296,-7.36491 l -3.57428,-1.49343 5.74506,-5.26191 c 9.79208,-8.96858 7.80186,-8.48561 22.44218,-5.44618 4.125,0.85638 10.0038,1.8326 13.064,2.16938 l 5.564,0.61232 2.12001,7.20129 c 1.16601,3.9607 2.42286,7.98878 2.79299,8.95128 0.59276,1.5414 0.0344,1.73454 -4.68401,1.62026 -2.94635,-0.0714 -8.73199,-0.516 -12.85699,-0.9881 z M 844,799 V 781 H 736.5567 629.11341 l -1.55671,-2.22251 c -2.24187,-3.20073 -1.92408,-6.18743 1.03219,-9.70076 L 631.17779,766 H 737.58889 844 v 6 c 0,4.28364 0.3752,6 1.31161,6 0.72138,0 4.28161,-5.2875 7.91163,-11.75 7.7844,-13.85854 14.03258,-26.25 13.23611,-26.25 -0.75004,0 -14.91044,10.44134 -19.88935,14.66564 L 842.64,758 h -14.82 c -8.151,0 -14.82,-0.38026 -14.82,-0.84501 0,-0.46476 0.92549,-1.68257 2.05664,-2.70625 C 818.81179,751.05037 814.48062,743 808.89711,743 c -4.94231,0 -7.67777,4.80192 -6.58201,11.55429 0.55804,3.43884 0.55131,3.44571 -3.37797,3.44571 H 795 v -6.5 -6.5 h -5 -5 v 6.5 6.5 h -4 -4 V 751.5 745 H 764.5 752 v 6.5 6.5 h -4 -4 v -6.5 -6.5 h -5 -5 v 6.5 6.5 h -4 -4 v -6.64504 -6.64503 l -7.25,0.71011 c -3.9875,0.39057 -7.7,0.62998 -8.25,0.53203 -0.55,-0.098 -12.1375,-0.3746 -25.75,-0.61477 L 660,744.90063 V 751.45031 758 h -3.53275 -3.53275 L 653.21725,746.75 653.5,735.5 761.75,735.24554 870,734.99107 V 775.99554 817 h -13 -13 z m -10.07897,-49.26474 c 3.48722,-1.77925 3.65716,-3.56494 0.45512,-4.78235 -3.52453,-1.34002 -10.32763,-0.24293 -11.10826,1.79136 -1.33772,3.48606 5.77105,5.48193 10.65314,2.99099 z M 273,811.01905 c 0,-5.84 0.87218,-6.32196 10.54167,-5.82517 L 289.5,805.5 l 0.30226,5.25 0.30226,5.25 H 281.55226 273 Z M 255,810 c 0,-3.77778 0.36667,-5 1.5,-5 1.13333,0 1.5,1.22222 1.5,5 0,3.77778 -0.36667,5 -1.5,5 -1.13333,0 -1.5,-1.22222 -1.5,-5 z m 229.33512,-14.29738 c -8.84956,-9.15709 -15.35749,-16.94775 -15.29158,-18.30561 0.0239,-0.49336 3.09175,-4.20994 6.81735,-8.25909 l 6.77382,-7.36207 8.09085,9.36207 c 4.44997,5.14915 9.93216,11.14091 12.18265,13.31503 2.25048,2.17412 4.09179,4.46072 4.09179,5.08134 0,0.62062 -3.31599,4.10797 -7.36886,7.74968 l -7.36887,6.62127 z m 60.43043,3.52116 c -10.97242,-5.06474 -11.8372,-19.94157 -1.52469,-26.22918 6.12328,-3.73341 15.71696,-1.77166 20.01129,4.09198 5.07464,6.92909 2.11016,18.48241 -5.64626,22.00487 -5.09151,2.31223 -8.05163,2.34274 -12.84034,0.13233 z m -250.0583,-11.23942 c -3.00143,-2.36092 -5.15005,-8.08396 -4.30262,-11.46039 0.98796,-3.93636 5.44456,-8.40505 9.05843,-9.08302 6.48761,-1.21708 13.53694,4.51791 13.53694,11.013 0,3.42512 -2.39463,8.00863 -5.21679,9.98535 -3.18904,2.23368 -9.9573,1.9982 -13.07596,-0.45494 z M 242,782 v -5 h 8.36667 8.36666 v 5 5 H 250.36667 242 Z m 31.19774,-0.25 0.30226,-5.25 3.75,-0.31037 3.75,-0.31036 V 781.43963 787 h -4.05226 -4.05226 z m 235.35819,-11 C 497.82698,759.84901 488.64721,747.2592 482.48905,735 479.42791,728.90612 475,717.8754 475,716.34345 475,716.15455 480.17048,716 486.48996,716 h 11.48997 l 4.63516,9.25 c 6.72222,13.41494 11.87913,20.9566 22.15149,32.39512 l 9.11081,10.14512 -6.84146,6.60488 C 523.27312,778.0278 519.84564,781 519.41931,781 c -0.42634,0 -5.31486,-4.6125 -10.86338,-10.25 z m 76.56502,5.52736 c -2.23186,-0.42243 -2.34205,-0.76267 -1.78105,-5.49944 0.32889,-2.77703 0.80479,-5.25594 1.05754,-5.50869 0.25275,-0.25275 1.84173,-0.15597 3.53105,0.21506 2.34074,0.51412 3.07151,1.22078 3.07151,2.97017 0,4.1813 -1.23314,8.54758 -2.375,8.40936 -0.61875,-0.0749 -2.19557,-0.33881 -3.50405,-0.58646 z M 248,761.29056 c -4.83355,-1.77726 -5,-2.52613 -5,-22.49521 0,-14.62711 0.33044,-19.53366 1.46301,-21.72383 2.37517,-4.59306 7.87331,-5.56557 11.132,-1.96903 1.71851,1.89668 1.93504,4.09729 2.212,22.48003 l 0.30702,20.37753 -3.30702,2.01624 c -3.4203,2.08531 -4.266,2.24859 -6.80701,1.31427 z m 29,-8.74284 V 747 h 6.55226 6.55226 l -0.30226,5.25 -0.30226,5.25 -6.25,0.29772 -6.25,0.29771 z M 632,746.5 V 735 h 4 4 v 11.5 11.5 h -4 -4 z m 59,7.5 c 0,-3.90476 0.0833,-4 3.5,-4 3.41667,0 3.5,0.0952 3.5,4 0,3.90476 -0.0833,4 -3.5,4 -3.41667,0 -3.5,-0.0952 -3.5,-4 z M 307,634.5 V 512 h 11.99214 11.99215 l 0.25785,122.50005 0.25786,122.50004 -12.25,-4e-5 L 307,757 Z m 14.81037,109.85128 c -0.57576,-6.76872 -5.7551,-7.0082 -5.79506,-0.26795 -0.019,3.19769 0.66241,3.91667 3.71172,3.91667 2.14428,0 2.36136,-0.38019 2.08334,-3.64872 z m -0.84555,-10.28554 C 321.63063,732.82166 322,717.34375 322,690.68819 c 0,-35.06446 -0.22413,-41.62932 -1.4562,-42.65184 -0.8009,-0.66469 -1.9259,-0.91823 -2.5,-0.56342 -1.16444,0.71967 -1.53353,86.70401 -0.37713,87.8604 1.14947,1.14947 2.22601,0.73572 3.29815,-1.26759 z m 1.00338,-99.1933 c 0.0379,-5.51276 -1.86166,-7.83612 -4.36225,-5.33553 -2.06728,2.06728 -2.07207,8.3526 -0.009,11.2986 1.52057,2.17091 1.66322,2.19362 2.96819,0.4725 0.75398,-0.9944 1.38517,-3.89041 1.40267,-6.43557 z M 320.85221,623.25 c 1.33593,-2.53409 0.61573,-64.18206 -0.76595,-65.56374 -3.00524,-3.00524 -3.39467,1.10947 -3.16851,33.47884 0.12396,17.74162 0.44474,32.6124 0.71283,33.04619 0.81329,1.31592 2.24658,0.88825 3.22163,-0.96129 z m 0.0936,-74.68468 c 0.65487,-0.78907 1.04747,-2.92657 0.87244,-4.75 C 321.55092,541.03051 321.09996,540.5 319,540.5 c -2.10458,0 -2.55069,0.52911 -2.82046,3.3452 -0.5505,5.74651 1.9002,8.1735 4.76625,4.72012 z M 321.5,526 c 0,-4.13333 -0.2037,-4.5 -2.5,-4.5 -2.74587,0 -3.68392,2.6389 -2.54753,7.16663 0.46093,1.83649 1.1817,2.38308 2.83288,2.14829 C 321.1968,530.54311 321.5,529.88392 321.5,526 Z M 213,751 v -4 h 4.5 4.5 v 4 4 h -4.5 -4.5 z m 254.50075,2.36633 c 2.71312,-6.29788 0.91197,-12.72267 -3.9057,-13.93183 -2.85788,-0.71728 -8.10665,1.78439 -9.60059,4.57585 C 453.40881,745.10466 452.54332,746 452.07116,746 450.49343,746 442,721.70014 442,717.18621 442,716.35583 444.80518,716 451.35158,716 h 9.35158 l 1.81208,6.75 c 0.99665,3.7125 4.065,11.12996 6.81857,16.48325 4.96414,9.65093 4.99034,9.75109 3.09752,11.84262 -1.04992,1.16016 -2.76972,2.57005 -3.82177,3.13309 -1.6445,0.8801 -1.80004,0.7619 -1.10881,-0.84263 z M 612.5,754.33383 C 587.75447,748.70371 572.71084,740.31784 560.71327,725.46601 555.6004,719.13677 548,705.03882 548,701.8842 548,700.05527 545.78961,700 472.64246,700 h -75.35755 l -0.64245,-6.14669 C 396.28911,690.47263 396,685.97263 396,683.85331 V 680 h 83.91821 c 46.15502,0 84.63002,0.27314 85.5,0.60699 0.86999,0.33384 1.58179,1.66696 1.58179,2.96249 0,6.8087 7.88364,20.9215 16.84213,30.14972 7.91803,8.15645 23.46906,16.19926 31.43865,16.25971 l 2.78078,0.0211 -0.28078,12.23782 c -0.29747,12.96545 -0.40246,13.20593 -5.28078,12.09601 z M 496.94981,693.56047 c 0.65709,-0.79174 1.04969,-2.70424 0.87245,-4.25 C 497.23455,684.18498 489,685.22288 489,690.42244 c 0,4.19933 5.32467,6.30114 7.94981,3.13803 z m 44.2245,55.12508 c -2.87766,-3.06313 -2.77241,-3.71351 1.2284,-7.59125 l 3.40271,-3.29804 3.05802,2.2609 c 3.23631,2.39271 3.21478,2.59949 -0.80102,7.69281 -3.04657,3.86403 -4.01358,3.99537 -6.88811,0.93558 z M 210.85853,728.8425 C 206.77575,726.47503 203,720.58417 203,716.58173 c 0,-13.50192 16.83134,-19.37147 25.90726,-9.03458 2.54152,2.89463 3.09274,4.38104 3.09274,8.33976 0,11.476 -11.51936,18.53512 -21.14147,12.95559 z m 10.20721,-7.87768 c 2.21722,-1.18662 2.68837,-6.81071 0.73426,-8.76482 -1.98905,-1.98905 -6.5283,-1.42599 -8.2433,1.02251 -2.05737,2.93731 -1.96362,4.37057 0.4433,6.77749 2.23307,2.23307 4.19534,2.50101 7.06574,0.96482 z m 302.49096,4.81267 c -2.35174,-3.35759 -1.92865,-4.54709 2.40346,-6.75717 5.22264,-2.66439 6.47631,-2.55256 7.96298,0.71034 1.14661,2.51653 1.00113,2.94781 -1.85526,5.5 -3.74659,3.34758 -6.42876,3.5199 -8.51118,0.54683 z m -247.3699,-2.27377 c -7.10137,-5.9754 -7.38485,-15.48861 -0.63806,-21.41237 2.87437,-2.52373 4.38664,-3.09014 8.23606,-3.08476 13.40209,0.0187 18.79762,15.00679 8.61935,23.94343 -4.64994,4.08269 -11.73587,4.32463 -16.21735,0.5537 z m 10.59069,-7.06042 C 290.57693,713.78207 288.76696,707 284.25731,707 281.83806,707 279,710.02213 279,712.59828 c 0,1.94238 3.20207,5.40172 5,5.40172 0.30524,0 1.55512,-0.70052 2.77749,-1.5567 z m -42.75756,-18.13875 c -10.3465,-5.36507 -10.78604,-20.20863 -0.77907,-26.30995 6.39586,-3.89961 16.34062,-1.35884 20.19045,5.15841 3.69492,6.255 1.5918,15.51208 -4.56707,20.10242 -3.7577,2.80069 -10.54178,3.28015 -14.84431,1.04912 z M 210,663.45619 v -23.54381 l 7.25,0.29381 7.25,0.29381 0.27619,15.27724 c 0.26719,14.77906 0.19382,15.4178 -2.25,19.58785 C 221.0692,677.85127 220,681.22569 220,683.33786 V 687 h -5 -5 z M 276,678 v -5 h 7 7 v 5 5 h -7 -7 z M 169,649.08333 c 0,-6.23896 0.42009,-11.05949 0.9804,-11.25 0.53922,-0.18333 6.16422,-0.19359 12.5,-0.0228 L 194,638.12107 v 10.93946 10.93946 H 181.5 169 v -10.91667 z m 16.81642,0.16667 c -0.26366,-2.29145 -0.85834,-2.80225 -3.56642,-3.06336 -3.02758,-0.29191 -3.25,-0.10371 -3.25,2.75 0,2.84518 0.25401,3.06336 3.56642,3.06336 3.30069,0 3.54285,-0.20491 3.25,-2.75 z m 90.12433,6.04669 C 272.57236,652.46237 270,647.54198 270,643.93325 c 0,-3.60012 3.17958,-9.07159 6.41996,-11.04757 1.80888,-1.10305 4.93724,-1.8782 7.58004,-1.8782 10.66405,0 16.96218,9.94792 12.39354,19.57563 -3.54055,7.46115 -14.25337,9.93005 -20.45279,4.71358 z m 11.12499,-6.33187 c 3.03636,-1.62501 2.66209,-7.67608 -0.56574,-9.14677 -4.05661,-1.84832 -7.5,0.2686 -7.5,4.61082 0,4.81701 3.67689,6.88479 8.06574,4.53595 z m -44.02053,-7.21482 0.0452,-15.25 6.08956,-3.80461 6.08956,-3.80462 -2.88477,-3.03466 c -1.58662,-1.66906 -4.12227,-3.68104 -5.63477,-4.47107 -2.49018,-1.30069 -2.75,-1.95362 -2.75,-6.91072 L 244,599 h 7 7 v 29 29 h -7.5 -7.5 l 0.0452,-15.25 z M 169.22012,611.25 169.5,598.5 h 28.5 28.5 l 0.27988,12.75 0.27987,12.75 H 198 168.94025 Z M 276,608 v -9 h 7 7 v 9 9 h -7 -7 z m 336.89788,-20.2826 c -4.78692,-3.21571 -6.78268,-9.10573 -4.8267,-14.24488 0.7866,-2.06673 2.70028,-4.70603 4.25261,-5.86511 l 2.82242,-2.10741 109.08817,-0.26315 109.08817,-0.26316 8.08872,5.36962 c 7.00754,4.65188 19.59202,12.75035 23.28611,14.98527 2.75756,1.66832 -8.69708,-16.14349 -14.44738,-22.4655 L 844,555.9917 V 520.49585 485 h -91 -91 v -7.47302 -7.47301 l 49.75,-0.40979 c 27.3625,-0.22538 55.6,-0.84921 62.75,-1.38629 8.49817,-0.63834 13.43287,-0.63653 14.25,0.005 1.48889,1.16938 1.67664,7.35515 0.25,8.23686 -1.4764,0.91246 -1.21441,4.07716 0.45201,5.46017 C 791.88217,483.97702 795,482.27561 795,478.93261 795,477.31968 794.55,476 794,476 c -1.40664,0 -1.24926,-5.35074 0.2,-6.8 0.84735,-0.84735 6.66864,-1.2 19.80887,-1.2 19.96861,0 21.72651,-0.39553 22.22207,-5 l 0.26906,-2.5 -20.22244,0.35387 -20.22244,0.35387 -2.19163,-3.71454 -2.19163,-3.71453 -1.3547,2.58552 c -1.93072,3.68493 -4.03063,4.45241 -10.62095,3.88177 l -5.80379,-0.50254 2.0384,-2.16979 c 1.12113,-1.19338 2.30882,-3.52185 2.63933,-5.17438 0.48546,-2.42731 0.0271,-3.61893 -2.38582,-6.20193 -3.41129,-3.65179 -6.83295,-4.11218 -10.21407,-1.37432 -1.7464,1.41414 -2.27587,2.92802 -2.36079,6.75 -0.0602,2.70985 0.25835,5.9395 0.70792,7.177 0.75794,2.08638 0.53614,2.25 -3.05,2.25 -2.12707,0 -4.40739,-0.54 -5.06739,-1.2 -1.78688,-1.78688 -1.60887,-19.8589 0.22023,-22.35887 1.37663,-1.88155 3.14157,-1.94113 57.4987,-1.94113 h 56.07848 l 0.001,77.25 10e-4,77.25 H 743.14729 616.29518 l -3.39789,-2.2826 z m 70.77048,-9.29555 C 684.43682,576.41929 682.19864,574 679.57756,574 c -4.55218,0 -6.36633,5.389 -2.32756,6.91406 2.50725,0.94674 5.55245,-0.23569 6.41836,-2.49221 z m -57.72389,1.14506 c 1.82543,-2.19951 -2.25376,-6.00693 -4.91169,-4.58445 -2.75899,1.47656 -3.37966,2.89465 -1.99643,4.56134 1.54698,1.864 5.36971,1.87678 6.90812,0.0231 z M 638.5,578 c 0,-2.09068 -0.53324,-2.55139 -3.25688,-2.81387 -2.24306,-0.21617 -3.44367,0.17293 -3.85698,1.25 -1.13831,2.96637 0.3988,4.71101 3.85698,4.37774 C 637.96676,580.55139 638.5,580.09068 638.5,578 Z m 29.97135,1.64461 c 2.53443,-1.85322 1.358,-4.30354 -2.46983,-5.14428 -3.58865,-0.7882 -9.00152,1.05866 -9.00152,3.0713 0,3.16725 7.99821,4.6126 11.47135,2.07298 z M 835,578.10699 c 0,-1.04116 -0.7118,-2.16616 -1.58179,-2.5 C 832.54823,575.27314 799.97833,575 761.04066,575 c -57.52144,0 -71.00177,0.24821 -71.89442,1.32379 C 686.19736,579.87698 688.65885,580 762.7,580 c 70.27125,0 72.3,-0.0531 72.3,-1.89301 z M 859,520.5 V 487 h -2.5 -2.5 v 32.83333 c 0,18.05834 0.3,33.13334 0.66667,33.5 C 855.03333,553.7 856.15833,554 857.16667,554 858.90796,554 859,552.31818 859,520.5 Z m -7.70887,-47.83329 c 3.64102,-6.63684 9.29807,-18.92538 12.63729,-27.4514 1.98256,-5.0621 1.99006,-5.24205 0.17797,-4.27225 -3.98683,2.13369 -16.87575,17.32456 -22.85639,26.93855 -3.4375,5.52584 -6.25094,10.40054 -6.2521,10.83268 -10e-4,0.43214 2.90315,0.63573 6.45402,0.45242 l 6.45611,-0.33329 z M 794.8,449.8 c 1.75788,-1.75788 1.46696,-4.24843 -0.72834,-6.23515 -2.21556,-2.00505 -4.93094,-1.48282 -7.59476,1.46068 -1.71624,1.89642 -1.71532,2.05353 0.0231,3.97447 2.01122,2.22237 6.44981,2.65019 8.3,0.8 z M 198.9423,585.60945 c -0.24327,-0.24299 -0.28446,-2.7579 -0.0915,-5.58869 0.45436,-6.667 1.73996,-7.16537 17.54226,-6.80039 L 228.5,573.5 v 6 6 l -14.5577,0.27563 c -8.00674,0.1516 -14.75674,0.0768 -15,-0.16618 z M 242,579.5 V 574 h 8.5 8.5 v 5.5 5.5 h -8.5 -8.5 z m 38,0.0548 v -5.55479 h 5.05226 5.05226 l -0.30226,5.25 -0.30226,5.25 -4.75,0.30479 -4.75,0.30479 z m 250.5,-1.26035 C 525.61173,577.137 499.27991,563.61888 490.01864,557.51229 444.42927,527.4521 410.18372,477.89234 398.1078,424.5 c -4.24136,-18.7527 -5.3421,-32.25288 -4.8106,-59 0.81772,-41.15025 5.68124,-63.22004 21.15555,-96 27.65277,-58.57818 83.44698,-102.4666 148.63246,-116.91614 26.93245,-5.97006 24.27515,-5.87252 171.66479,-6.30154 L 870,145.88864 V 221.44432 297 H 753.5 637 l -0.11515,-20.25 c -0.13001,-22.86239 -0.0824,-23.77099 1.33517,-25.5 0.80698,-0.98425 21.49587,-1.25 97.31353,-1.25 h 96.28866 l 2.5003,2.97144 c 1.37517,1.63429 5.0958,7.37179 8.26808,12.75 4.06663,6.89448 8.232,12.21181 14.12281,18.02856 4.59527,4.5375 8.74721,8.25 9.22653,8.25 1.24812,0 -5.6267,-15.15442 -14.40355,-31.75029 L 844,245.99941 v -32.31165 -32.31164 l 2.9795,-2.20284 c 3.049,-2.25423 9.86258,-11.82054 16.2966,-22.88054 l 3.611,-6.20726 -7.19355,4.59106 c -3.95645,2.52508 -10.92538,7.27546 -15.4865,10.55639 l -8.29296,5.96533 -120.70704,-0.25148 C 588.6852,170.68319 592.30562,170.57774 571,175.14699 c -37.59283,8.06225 -70.37045,26.11241 -98.18345,54.06821 -28.11046,28.25478 -44.75191,62.97332 -52.46565,109.45742 -1.35489,8.16478 -1.8034,16.48339 -1.82382,33.82738 -0.0289,24.52942 0.44351,28.77548 5.674,51 9.62909,40.91432 39.93305,85.78523 74.46636,110.26194 13.56494,9.61464 25.91064,16.51947 35.51328,19.86225 13.41193,4.66883 17.12181,10.58884 12.58384,20.08056 -1.95908,4.09766 -9.43404,6.20701 -16.26456,4.58969 z m 6.46123,-10.222 C 539.03042,564.20613 534.84474,559.94236 531,562 c -2.21761,1.18683 -2.65925,4.94075 -0.8,6.8 1.83484,1.83484 5.60712,1.42891 6.76123,-0.72756 z M 444.5,493.60899 c 0,-3.59911 -2.63564,-5.57124 -4.91618,-3.67856 -3.12235,2.59133 -1.07386,7.42808 2.9045,6.85789 1.48519,-0.21286 2.01168,-1.04494 2.01168,-3.17933 z m -7.26451,-12.22649 c 1.07021,-2.34885 0.91268,-2.8583 -1.53477,-4.9635 -1.50006,-1.2903 -3.40027,-2.08779 -4.22268,-1.7722 -2.42136,0.92916 -2.96049,5.16261 -0.94157,7.39349 2.46974,2.72904 5.28168,2.45293 6.69902,-0.65779 z M 429.39276,466.75 c 2.0349,-3.24616 -2.90175,-8.17874 -6.14276,-6.1377 -2.4681,1.55429 -2.72954,4.20034 -0.64283,6.50612 2.07976,2.29811 5.22095,2.12756 6.78559,-0.36842 z m -7.40354,-14.23701 c 1.84687,-2.22534 0.41527,-6.37337 -2.44761,-7.0919 -3.26148,-0.81858 -4.54161,0.15046 -4.54161,3.43793 0,4.66855 4.28709,6.90984 6.98922,3.65397 z M 417,437.0125 c 0,-0.54312 -1.125,-5.31739 -2.5,-10.60948 -1.375,-5.29208 -2.5,-10.43521 -2.5,-11.42916 0,-0.99396 -0.5625,-2.00889 -1.25,-2.2554 -2.03264,-0.72883 -4.59893,1.11548 -4.20004,3.01845 1.38664,6.61534 4.7097,18.87975 5.53159,20.41547 1.02564,1.91643 4.91845,2.59719 4.91845,0.86012 z M 409.33532,397.25 c -1.50993,-14.00892 -0.84393,-47.55364 1.20613,-60.75 2.53331,-16.30708 2.51372,-18.92073 -0.14461,-19.30031 -1.88804,-0.26959 -2.26906,0.54868 -3.72506,8 -3.53258,18.07854 -4.89749,41.79485 -3.5567,61.80031 1.11647,16.65864 1.45297,18 4.51555,18 h 2.54001 z M 653.03997,289.16872 c 1.74578,-1.41365 2.10966,-2.43643 1.59555,-4.48477 -0.7735,-3.08191 -4.82879,-4.59837 -7.14851,-2.67317 -2.05473,1.70528 -1.89015,6.65503 0.26299,7.90912 2.38626,1.38987 2.70109,1.34516 5.28997,-0.75118 z m 44.3886,0.25985 c 1.86505,-1.86505 2.05418,-5.54582 0.37143,-7.22857 -1.98905,-1.98905 -6.5283,-1.42599 -8.2433,1.02251 -2.00333,2.86015 -1.96421,3.36998 0.4433,5.77749 2.40228,2.40228 5.28836,2.56879 7.42857,0.42857 z M 739,289 c 2.40751,-2.40751 2.44663,-2.91734 0.4433,-5.77749 -1.715,-2.4485 -6.25425,-3.01156 -8.2433,-1.02251 -2.85609,2.85609 -0.24116,8.8 3.87143,8.8 1.06071,0 2.82857,-0.9 3.92857,-2 z m 89.80226,-23.75 0.30226,-5.25 H 737.55226 646 v 4.83333 c 0,2.65834 0.30237,5.1357 0.67193,5.50526 0.36955,0.36956 41.43205,0.55706 91.25,0.41667 L 828.5,270.5 Z M 859,216 v -32 h -2.5 -2.5 v 32 32 h 2.5 2.5 z M 545.96013,173.54804 c 1.6166,-1.94789 0.99043,-4.51047 -1.50651,-6.16533 -3.90191,-2.58602 -8.56319,3.10772 -5.25362,6.41729 1.6448,1.6448 5.29899,1.5086 6.76013,-0.25196 z m 16.46844,-5.11947 c 2.04603,-2.04603 1.98168,-3.01832 -0.35436,-5.35436 -2.45392,-2.45392 -5.89052,-1.65426 -6.69682,1.55827 -1.13661,4.52865 3.7096,7.13767 7.05118,3.79609 z m 19.63717,-3.46375 C 584.6189,163.5984 584.57909,159.38029 582,158 c -4.20262,-2.24917 -8.19429,3.40571 -4.8,6.8 1.46916,1.46916 2.37145,1.49972 4.86574,0.16482 z m 114.3381,-3.27085 c 1.09791,-0.80281 1.65318,-2.2477 1.44113,-3.75 -0.28847,-2.04366 -0.9004,-2.44397 -3.73598,-2.44397 -4.79019,0 -6.48657,2.90512 -3.24821,5.56265 2.79448,2.29326 3.20611,2.34014 5.54306,0.63132 z M 635.5,159 c 0,-1.94457 -0.57444,-2.56678 -2.5856,-2.80056 -3.41433,-0.39689 -5.69044,2.16056 -3.87244,4.35112 0.7161,0.86285 2.43361,1.41725 3.87244,1.25 C 634.92556,161.56678 635.5,160.94457 635.5,159 Z m 32.19053,1.36408 c 1.49908,-3.90653 -4.00632,-6.90543 -7.0639,-3.84785 -1.2317,1.2317 -1.37372,2.08781 -0.58946,3.55322 1.31,2.44775 6.74681,2.65705 7.65336,0.29463 z M 681.8,160.8 c 1.77645,-1.77645 1.46129,-3.5898 -0.83777,-4.82022 -2.9005,-1.55229 -5.96223,-0.30909 -5.96223,2.42094 0,1.24627 0.3,2.56595 0.66667,2.93261 1.08654,1.08655 4.83982,0.76018 6.13333,-0.53333 z m 136.95,0.56971 c 1.32345,-0.35467 2.25,-1.37854 2.25,-2.48634 C 821,157.06059 819.13952,157 763.16667,157 c -31.80834,0 -58.1175,0.28417 -58.46482,0.63148 -0.34732,0.34732 -0.18148,1.47232 0.36852,2.5 0.95814,1.79032 3.31095,1.86795 56.21481,1.85487 30.36815,-0.008 56.22732,-0.285 57.46482,-0.61664 z M 834,161.01315 c 1.15766,-0.73798 1.24875,-1.36211 0.39914,-2.73468 -1.4361,-2.32004 -5.7192,-2.80267 -7.35718,-0.82903 -2.63193,3.17128 3.02704,6.06965 6.95804,3.56371 z M 169,362 V 146 h 81.625 81.625 l -0.625,3.125 c -0.34375,1.71875 -0.625,17.24375 -0.625,34.5 V 215 h -12 -12 l 0.0165,-16.75 0.0165,-16.75 4.23349,-4.10851 C 314.96501,173.80218 328,153.794 328,151.70627 c 0,-0.94899 -8.62193,4.51534 -20.40554,12.93245 L 298.68892,171 h -47.67328 -47.67327 l -6.92118,-5.31285 c -3.80666,-2.92207 -9.17119,-6.58286 -11.92119,-8.13509 -2.75,-1.55222 -6.46951,-3.91469 -8.26559,-5.24992 l -3.26558,-2.4277 3.68992,6.81278 c 5.27661,9.7423 10.76664,17.38739 14.76342,20.55866 l 3.46065,2.74589 -0.19141,199.00403 -0.19141,199.00402 -12.75,9e-5 L 169,578 Z m 15.83008,207.12618 c 0.75546,-0.47892 1.18747,-2.09236 1,-3.73469 C 185.5478,562.91874 185.06555,562.5 182.5,562.5 c -2.37116,0 -3.06849,0.48317 -3.32676,2.30504 -0.55813,3.93708 2.53526,6.30005 5.65684,4.32114 z M 184.5,451 c 0,-100.83333 -0.0131,-101.5 -2,-101.5 -1.9835,0 -2.00413,0.83333 -2.5,101 -0.275,55.55 -0.34504,101.36323 -0.15564,101.80719 0.1894,0.44395 1.3144,0.66895 2.5,0.5 L 184.5,552.5 Z m 0.58021,-110.71097 c 1.26221,-3.31987 0.41935,-7.1601 -1.75462,-7.99433 -3.33021,-1.27792 -5.94795,6.68294 -3.12559,9.5053 1.95039,1.95039 3.77952,1.38407 4.88021,-1.51097 z M 184.40266,326.25 c 0.29558,-0.9625 0.50431,-8.58224 0.46383,-16.93275 -0.0604,-12.46538 -0.33968,-15.28485 -1.56029,-15.75324 -0.81768,-0.31378 -1.89608,-0.31748 -2.39644,-0.008 -1.03474,0.63951 -1.26587,32.75479 -0.24309,33.77756 1.24193,1.24194 3.19589,0.67535 3.73599,-1.08333 z M 184.8,285.8 c 1.97216,-1.97216 1.45169,-6.59493 -0.88319,-7.84452 -1.6619,-0.88943 -2.47082,-0.76408 -4,0.6198 -2.15974,1.95455 -2.39242,3.66751 -0.88163,6.49046 1.16668,2.17996 3.96296,2.53612 5.76482,0.73426 z m -0.0361,-46.61106 c 0.21792,-26.67707 0.0152,-32.66618 -1.16255,-34.34766 l -1.42648,-2.03659 -1.08745,2.03191 C 180.36791,206.18108 180,217.9097 180,239.50381 v 32.63529 l 2.25,-0.31955 2.25,-0.31955 0.26393,-32.31106 z m 139.04043,-38.87467 c 0.25113,-3.45379 -0.077,-4.38981 -1.8765,-5.35288 -1.59242,-0.85223 -2.82126,-0.87536 -4.55435,-0.0857 C 315.37852,195.78466 315,196.68735 315,200.53606 v 4.57894 l 4.25,-0.3075 c 4.21802,-0.30519 4.25229,-0.33899 4.55436,-4.49323 z M 184.39301,199.41821 C 184.72686,198.54823 185,194.77137 185,191.0252 c 0,-5.30372 -0.35196,-6.94628 -1.59024,-7.42146 -0.87464,-0.33562 -1.99964,-0.35721 -2.5,-0.048 -1.03871,0.64196 -1.2578,15.76286 -0.24309,16.77756 1.18207,1.18208 3.10256,0.71044 3.72634,-0.91512 z M 212,160.5 c 0.99319,-1.19672 0.99319,-1.80328 0,-3 -2.61962,-3.15645 -9.03818,-0.64784 -7.64326,2.98727 0.7538,1.96437 6.01627,1.97314 7.64326,0.0127 z m 69.41821,0.89301 C 282.2882,161.05917 283,159.93417 283,158.89301 283,157.07517 281.73159,157 251.05902,157 c -21.10894,0 -32.15976,0.35398 -32.58609,1.0438 -0.35481,0.5741 -0.10127,1.6991 0.56342,2.5 1.00862,1.21531 6.13749,1.4562 31.00431,1.4562 16.38767,0 30.50757,-0.27314 31.37755,-0.60699 z m 15.39009,-2.05712 c 0.3505,-2.4604 -2.54189,-3.87261 -5.8083,-2.83589 -2.20726,0.70056 -2.72108,4.02981 -0.75,4.8595 2.83505,1.19336 6.25013,0.13962 6.5583,-2.02361 z m -55.89585,399.38409 c -4.55706,-3.071 -6.11262,-6.30643 -5.39406,-11.21919 1.09866,-7.51142 8.78897,-12.27297 15.3995,-9.5348 9.76648,4.04541 10.74925,17.76818 1.54781,21.61279 -4.76576,1.99126 -7.64122,1.77752 -11.55325,-0.8588 z M 250.3877,550.75 c 1.51321,-2.40286 -0.38308,-5.25 -3.49669,-5.25 -1.89397,0 -2.45963,0.60108 -2.72109,2.89149 -0.51417,4.50422 3.82903,6.15167 6.21778,2.35851 z m 29.1123,9.04218 c -4.85935,-2.78683 -5.85921,-7.7945 -2.42742,-12.15732 2.77034,-3.52192 7.67875,-3.59291 10.90594,-0.15773 3.18862,3.39414 2.98217,8.29943 -0.47444,11.27287 -2.89538,2.49067 -5.00046,2.76476 -8.00408,1.04218 z M 214.19521,549.25 c 0.2601,-4.05349 0.63471,-4.79686 2.55479,-5.06955 2.07947,-0.29533 2.25,0.0647 2.25,4.75 0,4.76985 -0.15104,5.06955 -2.55479,5.06955 -2.42393,0 -2.53918,-0.2433 -2.25,-4.75 z m 534.21998,3.32859 C 743.83871,550.58599 741,546.43411 741,541.73318 c 0,-13.74475 18.50493,-17.72562 24.42309,-5.25402 3.02046,6.36515 0.37328,13.4545 -6.02166,16.12647 -4.11779,1.72053 -6.98877,1.71346 -10.98624,-0.027 z m 9.76491,-9.07453 c 0.93966,-2.06233 0.82215,-2.84409 -0.67642,-4.5 C 754.26069,535.4206 749,536.96468 749,541.5 c 0,4.90475 7.14752,6.46509 9.1801,2.00406 z m -41.86473,8.48896 C 712.3598,550.39928 712,548.08004 712,524.17653 c 0,-20.81843 0.17165,-23.16694 1.84417,-25.23241 2.27608,-2.81084 7.29159,-3.03622 10.14292,-0.4558 1.91198,1.73032 2.01214,3.02977 1.9976,25.91667 -0.008,13.25225 -0.34592,24.59014 -0.75,25.19531 -0.8386,1.25591 -4.69778,3.4312 -5.91895,3.33631 -0.44866,-0.0349 -1.79882,-0.45948 -3.00037,-0.94359 z M 784,551.7469 l -2.5,-1.3048 -0.2678,-24.87264 c -0.2378,-22.08607 -0.0804,-25.07972 1.40499,-26.72105 2.04895,-2.26407 7.11625,-2.40984 10.1403,-0.29171 2.19517,1.53756 2.22251,1.86201 2.22251,26.37756 0,19.57455 -0.28435,25.05684 -1.34531,25.93736 -2.21141,1.83531 -6.98594,2.26816 -9.65469,0.87528 z M 576,543.5 V 537 h 6.5 6.5 v 6.5 6.5 h -6.5 -6.5 z m 33,0.55479 V 538 h 5.0499 5.04991 l -0.29991,5.75 -0.2999,5.75 -4.75,0.30479 -4.75,0.30479 z m 37.43215,4.62899 c -0.30348,-0.79084 -0.41236,-3.63072 -0.24196,-6.31084 L 646.5,537.5 h 4 4 v 6 6 l -3.75804,0.31084 c -2.56752,0.21238 -3.93283,-0.14467 -4.30981,-1.12706 z m -94.32132,-2.73702 c -7.49634,-2.59375 -28.37615,-12.22913 -32.01822,-14.77539 -1.13465,-0.79327 -0.46255,-2.11635 3.46831,-6.82766 2.68164,-3.21404 5.01336,-6.04211 5.18161,-6.28459 0.16825,-0.24249 4.22754,1.5121 9.02064,3.8991 4.79311,2.38699 12.31971,5.55012 16.72579,7.02918 l 8.01104,2.68919 0.28893,8.66171 c 0.21953,6.58093 -0.0207,8.64362 -1,8.58642 -0.70891,-0.0414 -5.06406,-1.38149 -9.6781,-2.97796 z m 132.49616,1.47145 C 684.27314,546.54823 684,544.04971 684,541.86595 v -3.97047 l 5.25,0.30226 c 4.95434,0.28524 5.26848,0.46394 5.57808,3.17309 0.18045,1.57896 0.0594,3.94146 -0.26905,5.25 -0.515,2.05192 -1.19876,2.37917 -4.97109,2.37917 -3.06599,0 -4.55547,-0.47301 -4.98095,-1.58179 z M 817,542.5 V 536 h 4.5 4.5 v 6.5 6.5 H 821.5 817 Z M 275.70631,530.37298 C 275.31784,529.98451 275,522.76667 275,514.33333 V 499 h 8.02539 8.0254 l -0.2754,15.75 -0.27539,15.75 -7.04369,0.28965 c -3.87403,0.1593 -7.36153,-0.0282 -7.75,-0.41667 z M 243,521 v -5 h 7 7 v 5 5 h -7 -7 z m -32,-0.9501 V 515 h 6.05479 6.05479 l -0.30479,4.75 -0.30479,4.75 -5.75,0.2999 -5.75,0.29991 z m 370,1.2408 c -6.64846,-1.16197 -18.92661,-4.67672 -25.82716,-7.39328 -7.69004,-3.02738 -22.17401,-10.75279 -22.1715,-11.82576 7.3e-4,-0.31441 3.06837,-3.92345 6.81697,-8.02008 l 6.81564,-7.44842 3.02843,2.15643 c 4.72581,3.36508 20.9577,11.00271 28.64609,13.47893 4.09451,1.31872 7.47945,3.06913 8.22166,4.25155 0.6939,1.10546 1.5693,5.04743 1.94534,8.75993 l 0.68372,6.75 -2.8296,-0.13618 C 584.77332,521.78892 582.375,521.53102 581,521.2907 Z m 21.63977,-2.0407 c 0.37283,-1.5125 1.43673,-5 2.36423,-7.75 l 1.68636,-5 37.65482,-0.26203 L 682,505.97595 V 513.98797 522 H 641.98095 601.9619 Z m 213.72727,-0.0222 c -3.10904,-2.51842 -4.36897,-5.53254 -4.3523,-10.41202 0.0283,-8.26936 4.69299,-12.85939 10.87763,-10.70342 4.19251,1.46152 5.10763,3.49818 5.10763,11.36739 0,5.68596 -0.34351,6.95471 -2.45455,9.06574 -2.86621,2.86622 -6.17837,3.11244 -9.17841,0.68231 z m -316.67995,-2.03248 c -4.78006,-4.98931 -3.00022,-13.84467 3.21836,-16.01247 4.0866,-1.4246 7.78283,-0.34198 10.7102,3.13701 5.22723,6.2122 0.93839,15.68018 -7.10287,15.68018 -3.22903,0 -4.72916,-0.61641 -6.82569,-2.80472 z M 755,517 c -1,-0.64625 -1.08333,-0.97448 -0.25,-0.98469 2.49316,-0.0305 5.25,-3.97692 5.25,-7.51531 0,-4.52068 -2.91008,-7.5 -7.32569,-7.5 -8.44382,0 -10.57452,11.38571 -2.67431,14.29056 0.88654,0.32598 0.43871,0.58383 -1.09501,0.63049 C 745.36274,516.02882 743,513.10168 743,508.60552 c 0,-4.78016 1.32884,-7.20709 4.97998,-9.09517 6.07608,-3.14206 12.93403,-1.31868 15.5176,4.12578 C 767.124,511.27825 761.01432,520.88675 755,517 Z M 242.4113,498.10905 c -5.46757,-3.33409 -7.41172,-6.7444 -7.40756,-12.99391 0.006,-9.64218 5.49671,-15.11514 15.16299,-15.11514 6.17743,0 10.88407,2.78605 13.63988,8.07399 2.57056,4.93247 2.39763,10.07882 -0.50373,14.99042 -3.7282,6.31134 -14.53501,8.92084 -20.89158,5.04464 z M 253.8,488.8 c 0.66,-0.66 1.2,-2.37 1.2,-3.8 0,-3.30476 -1.69524,-5 -5,-5 -3.30476,0 -5,1.69524 -5,5 0,3.30476 1.69524,5 5,5 1.43,0 3.14,-0.54 3.8,-1.2 z m 53.86667,9.53333 C 307.3,497.96667 307,468.26667 307,432.33333 V 367 h 12 12 v 65.35754 65.35755 l -6.14669,0.64245 c -7.97126,0.83317 -16.34106,0.82138 -17.18664,-0.0242 z M 321.5,488 c 0,-1.83273 -0.60174,-2.58545 -2.25447,-2.82014 -1.35228,-0.19202 -2.49559,0.3082 -2.85699,1.25 -0.99567,2.59467 0.39988,4.73919 2.85699,4.39028 C 320.89826,490.58545 321.5,489.83273 321.5,488 Z M 321.75936,426.63942 321.5,377.5 319.25,377.18045 317,376.8609 v 49.48622 c 0,38.68976 0.27271,49.58134 1.25,49.92224 3.75531,1.30993 3.77663,1.00838 3.50936,-49.62994 z M 213,496.03566 210.5,494.1158 V 452.8079 411.5 l 6,-0.25859 c 3.3,-0.14223 6.675,0.17838 7.5,0.71246 1.26288,0.81755 1.54667,5.42521 1.79525,29.14799 l 0.29524,28.17694 -3.14128,2.62246 c -2.79017,2.32934 -3.20028,3.35747 -3.66914,9.19839 -0.40193,5.0072 -0.11419,7.44765 1.20614,10.23004 0.95369,2.00976 1.47356,4.33275 1.15527,5.16221 -0.80857,2.10711 -5.6354,1.85227 -8.64148,-0.45624 z m 262.0279,-2.50204 c -0.66934,-0.80651 -1.06194,-1.82064 -0.87244,-2.25362 0.48371,-1.10524 11.41204,-11.28 12.11543,-11.28 1.14393,0 11.63062,13.35034 11.1269,14.16538 -0.2837,0.45904 -5.15917,0.83462 -10.83436,0.83462 -7.84693,0 -10.61005,-0.35124 -11.53553,-1.46638 z m 33.64529,-10.65756 C 502.74041,476.85308 495.42871,468.03253 491.24492,461.85127 484.34739,451.66067 474,432.15226 474,429.33865 474,428.29528 476.63075,428 485.92669,428 h 11.9267 l 2.57023,5.61413 c 5.89513,12.87666 14.47622,25.08266 26.48444,37.67224 l 7.4268,7.78637 -3.91743,4.04848 c -2.15459,2.22667 -5.62881,5.41703 -7.7205,7.0897 l -3.80308,3.04121 z m 75.63114,8.16794 c -4.62203,-2.81823 -6.68895,-6.52329 -6.68895,-11.99031 0,-11.22957 10.33067,-18.02786 20.76808,-13.66683 5.10227,2.13187 8.12658,7.09388 8.06609,13.23411 -0.0855,8.67508 -5.81285,14.37155 -14.44955,14.37155 -2.70034,0 -5.77803,-0.77926 -7.69567,-1.94852 z m 41.05035,-6.50812 c -3.70151,-2.59265 -3.72851,-11.4062 -0.0421,-13.75022 0.65309,-0.41527 5.8629,-0.76193 11.57734,-0.77035 L 647.27981,470 l -0.57565,5.57746 c -0.3166,3.0676 -1.28993,6.6676 -2.16295,8 -1.45372,2.21865 -2.23995,2.42254 -9.34176,2.42254 -5.18992,0 -8.44574,-0.48421 -9.84477,-1.46412 z M 276.147,475.75 c -0.85926,-4.97959 -1.15645,-16.17507 -0.94902,-35.75 l 0.30202,-28.5 6.33731,-0.29998 c 3.8114,-0.18042 6.90038,0.16732 7.75,0.87244 1.16751,0.96895 1.41269,7.2257 1.41269,36.04998 V 483 h -6.80098 -6.80098 z M 551,474.62474 c -10.2362,-6.75405 -26,-22.29659 -26,-25.63508 0,-0.45691 1.4625,-1.14695 3.25,-1.53342 3.12152,-0.67488 10.38253,-4.15188 13.96028,-6.68499 1.4748,-1.04418 2.92054,-0.042 10.5,7.27879 4.83435,4.66934 10.25996,9.60577 12.05691,10.96983 l 3.2672,2.48013 -4.2672,8.7066 c -2.34695,4.78862 -4.71719,8.70668 -5.26719,8.70678 -0.55,1.1e-4 -3.925,-1.92978 -7.5,-4.28864 z m -90.31314,-2.25798 c -1.53922,-2.54828 -2.57625,-5.21263 -2.3045,-5.92078 0.27174,-0.70815 3.20261,-3.12688 6.51304,-5.37495 l 6.01896,-4.0874 4.04282,5.95332 C 477.18073,466.21127 479,469.29834 479,469.79709 479,470.6898 466.22084,477 464.41296,477 c -0.51014,0 -2.18688,-2.08496 -3.7261,-4.63324 z M 611,455.96913 c -31.67951,-5.64004 -44.52206,-11.78789 -56.76518,-27.17403 -6.98655,-8.78012 -12.59007,-19.52594 -15.79769,-30.2951 -2.17079,-7.28817 -2.77656,-11.7104 -3.18485,-23.25 L 534.7481,361 l 12.37595,0.004 12.37595,0.004 0.0846,10.24641 c 0.10001,12.10936 1.98771,20.28546 7.09436,30.72741 5.17331,10.57825 15.44596,20.58978 26.57849,25.90291 15.60183,7.44616 14.42269,7.34048 87.49252,7.84153 l 65.25,0.44743 v 10.91356 10.91356 l -62.25,-0.0808 c -56.16427,-0.0729 -63.27651,-0.2635 -72.75,-1.95011 z m 35.98922,-6.45614 c 1.66263,-2.00334 0.48375,-6.2281 -1.95377,-7.00174 -4.44171,-1.40974 -8.06793,4.05627 -4.83545,7.28875 1.65776,1.65776 5.3031,1.50366 6.78922,-0.28701 z m -97.0349,-72.95795 c 0.65956,-0.79472 1.05216,-2.48222 0.87244,-3.75 C 550.55665,370.89962 549.89322,370.5 547,370.5 c -2.89322,0 -3.55665,0.39962 -3.82676,2.30504 C 542.78205,375.56456 544.57607,378 547,378 c 0.96531,0 2.29475,-0.65023 2.95432,-1.44496 z m -304.09354,78.5358 c -2.32545,-1.88058 -2.37048,-2.26596 -3.00874,-25.75 -0.35638,-13.11246 -0.98049,-26.87834 -1.38691,-30.59084 L 240.72618,392 H 249.36309 258 l -0.006,26.75 c -0.003,15.24771 -0.44798,28.34291 -1.03444,30.45451 -1.00904,3.63314 -5.00511,7.79549 -7.48405,7.79549 -0.6899,0 -2.31671,-0.85912 -3.61515,-1.90916 z M 443.71388,439.75 c -1.51157,-3.9875 -2.74057,-7.5875 -2.7311,-8 0.009,-0.4125 4.31518,-0.75 9.56825,-0.75 h 9.55102 l 1.50129,3.59307 c 0.8257,1.97619 1.36055,4.01526 1.18855,4.53126 C 462.57978,439.76065 447.59627,447 446.49136,447 c -0.016,0 -1.26591,-3.2625 -2.77748,-7.25 z m -7.59232,-32.29085 C 435.5047,403.31169 435,398.34417 435,396.42022 v -3.49809 l 8.75,0.28894 8.75,0.28893 1.18496,8 c 0.65172,4.4 1.21422,9.2375 1.25,10.75 L 455,415 h -8.87844 -8.87844 z m 33.52652,6.06614 c -0.94843,-2.47156 -2.99065,-18.51606 -2.42838,-19.07832 0.28957,-0.28958 5.20372,-0.22411 10.92033,0.14548 l 10.39383,0.67198 2.04333,9.39085 c 1.12384,5.16497 1.82872,9.60548 1.56641,9.86779 -0.26231,0.26231 -5.30379,0.47693 -11.20328,0.47693 -8.53029,0 -10.8422,-0.30192 -11.29224,-1.47471 z m 38.52631,-15.73639 c -1.31589,-5.18419 -0.43552,-6.45856 4.80716,-6.95853 4.19884,-0.40042 4.97481,0.57037 5.0048,6.26134 0.0113,2.14671 -0.65015,2.79059 -3.85237,3.75 -2.12631,0.63706 -4.09657,1.15829 -4.37836,1.15829 -0.28179,0 -0.99334,-1.89499 -1.58123,-4.2111 z m -294.65357,-2.17717 c -3.1761,-3.1761 -3.75347,-6.9431 -3.35541,-21.89186 0.31121,-11.687 0.50397,-12.74492 2.7589,-15.14236 2.90465,-3.08819 6.8996,-3.34951 10.21491,-0.66816 2.25667,1.82515 2.37514,2.55764 2.68636,16.61042 0.34586,15.61655 -0.36231,19.34191 -4.1859,22.02006 -2.97768,2.08564 -5.3797,1.81106 -8.11886,-0.9281 z m 61.70039,-47.00755 c 0.26443,-44.00535 0.37694,-46.50423 2.18378,-48.5 2.68786,-2.96891 7.98787,-2.80223 11.14046,0.35037 L 291,302.90909 V 348.95455 395 h -8.02879 -8.02879 z m 194.67667,31.13775 c -7.22036,-4.79831 -9.7607,-15.43053 -5.15933,-21.59357 3.73461,-5.0021 6.96812,-6.61503 13.26145,-6.61503 6.27171,0 9.52805,1.61456 13.21432,6.55191 4.64863,6.22634 2.63678,16.90529 -4.03955,21.44197 -4.89126,3.3237 -12.45709,3.41773 -17.27689,0.21472 z M 242.5,337.74881 V 300.5 l 6.33731,-0.29998 c 3.8114,-0.18042 6.90038,0.16732 7.75,0.87244 C 257.75685,302.0431 258,308.50603 258,338.62244 V 375 l -7.75,-10e-4 -7.75,-0.001 v -37.24882 z m 265.16667,31.58452 C 507.3,368.96667 507,366.71667 507,364.33333 507,360.06737 507.05314,360 510.41821,360 c 5.1373,0 6.58179,0.8834 6.58179,4.0252 0,4.86372 -0.91871,5.9748 -4.94032,5.9748 -2.04949,0 -4.02635,-0.3 -4.39301,-0.66667 z M 434,364 v -5 h 8 8 v 5 5 h -8 -8 z M 307,291.5 V 229 h 12.66049 12.66048 l -0.65844,26.25 c -0.36214,14.4375 -0.65936,42.5625 -0.66048,62.5 L 331,354 h -12 -12 z m 15.3877,-22.75 c 2.35337,-3.73697 -3.46577,-7.73129 -6.0716,-4.16761 -1.69653,2.32014 -1.65835,2.9325 0.30528,4.89613 1.94909,1.94909 4.26429,1.65659 5.76632,-0.72852 z M 323,245.5 V 236 h -3.5 -3.5 v 9.5 9.5 h 3.5 3.5 z m 214.47412,98.75 c 2.26028,-12.16602 11.46959,-29.0265 21.78735,-39.88841 11.29362,-11.88924 24.71476,-19.6808 40.88688,-23.73661 8.44017,-2.11672 11.65046,-2.04504 15.57481,0.34774 3.72231,2.26958 4.73594,5.26183 3.99856,11.8038 -0.67226,5.96431 -3.70414,8.67603 -11.43658,10.22889 -10.33058,2.07463 -19.88821,7.53819 -28.9336,16.53972 -6.93984,6.90618 -8.86807,9.61224 -13,18.2441 L 561.5,347.9244 549.13871,347.9622 536.77742,348 Z m -94.24399,-1.19503 c -5.96346,-0.97025 -6.40369,-1.71571 -4.61556,-7.81562 1.69063,-5.76729 1.82732,-5.82585 10.74586,-4.60343 5.20869,0.71393 5.43994,1.29989 3.52086,8.92126 -1.2187,4.83989 -1.27554,4.86049 -9.65116,3.49779 z M 210.84252,338.75 c -0.74295,-6.41664 -0.38584,-6.75 7.2308,-6.75 H 225 v 5 5 h -6.89059 -6.8906 z m 258.16507,-6.53482 c 2.78823,-10.06168 6.819,-20.8688 10.57722,-28.35916 4.484,-8.9369 17.91859,-28.84499 24.87157,-36.85602 9.63902,-11.10581 25.68312,-23.98772 39.54362,-31.74982 20.35851,-11.40108 55.04962,-19.76295 73.70341,-17.7653 L 624,218.15919 v 7.76774 7.76774 l -11.75,0.62792 c -31.09106,1.66151 -63.84238,16.23275 -85.76852,38.15889 C 511.20214,287.76083 497.21743,311.116 490.99243,331.75 L 488.8052,339 h -10.83889 -10.83889 z m 42.90575,4.69816 c -1.52539,-1.52539 -1.91739,-2.80303 -1.45736,-4.75 0.68539,-2.90071 3.9435,-6.16334 6.1548,-6.16334 2.16516,0 5.38922,3.75547 5.38922,6.27749 0,5.94464 -6.01388,8.70863 -10.08666,4.63585 z M 211,316.5 v -5.59138 l 6.75,0.29569 6.75,0.29569 v 5 5 l -6.75,0.29569 -6.75,0.29569 z m 234.30078,-0.58017 c -8.58857,-4.25129 -10.46925,-14.93467 -3.80433,-21.61089 5.87957,-5.88953 13.40907,-5.63872 19.70414,0.65636 3.32442,3.32442 3.79941,4.38865 3.79941,8.51276 0,6.06901 -2.39456,10.05044 -7.54388,12.54318 -5.15297,2.49451 -6.94114,2.47959 -12.15534,-0.10141 z M 456.18195,306.5 c 2.32304,-5.09851 -2.3303,-9.60095 -7.34753,-7.10927 -2.66904,1.32551 -3.46606,4.56052 -1.86203,7.55769 1.68492,3.1483 7.70433,2.85521 9.20956,-0.44842 z m 71.62514,0.75 c -2.82404,-3.2884 -2.93208,-4.26572 -0.80223,-7.25682 2.72739,-3.83027 5.14831,-3.7883 8.45936,0.14666 l 2.642,3.13985 -2.7402,2.86015 c -3.14185,3.27939 -5.40994,3.6125 -7.55893,1.11016 z M 211,289 v -5 h 7 7 v 3.8 c 0,5.14395 -1.39671,6.2 -8.2,6.2 H 211 Z m 64,-31.07692 v -27.07693 l 3.04006,-3.04006 c 2.54425,-2.54424 3.56359,-2.93895 6.25,-2.42007 C 290.8965,226.66206 291,227.15913 291,257.61078 V 285 h -8 -8 z m 190.5,26.12289 c -6.16963,-2.55192 -9.30596,-11.65295 -6.13135,-17.79196 2.68492,-5.19208 6.19999,-7.25401 12.36621,-7.25401 4.85648,0 5.83502,0.36988 8.78627,3.32113 8.6057,8.6057 3.0079,22.79978 -8.91901,22.61548 -2.25617,-0.0349 -5.00212,-0.43565 -6.10212,-0.89064 z m 8.92857,-8.6174 C 477.36157,272.49558 475.29385,267 471.25731,267 469.03734,267 466,269.94546 466,272.09828 c 0,1.84608 3.52278,4.90172 5.65108,4.90172 0.66333,0 1.91321,-0.70714 2.77749,-1.57143 z M 562.75,272.81416 c -0.9625,-2.38435 -1.75,-4.82092 -1.75,-5.41461 0,-1.27434 7.71535,-4.01753 8.65545,-3.07744 1.17429,1.1743 3.1418,10.16292 2.39994,10.9642 -0.4004,0.43247 -2.26417,1.02857 -4.1417,1.32467 -3.25611,0.51351 -3.49447,0.33824 -5.16369,-3.79682 z M 243,262.04569 V 257 h 7.05479 7.05479 l -0.30479,4.75 -0.30479,4.75 -6.75,0.29569 -6.75,0.29569 z M 211,261 v -5 h 6.5 6.5 v 5 5 h -6.5 -6.5 z m 397.4088,1.62294 c -0.29063,-0.75738 -0.38901,-3.56988 -0.21861,-6.25 L 608.5,251.5 l 4.75,-0.30479 4.75,-0.30479 V 257.44521 264 h -4.53138 c -2.92561,0 -4.71865,-0.48799 -5.05982,-1.37706 z M 484.57792,247.82 C 482.61007,245.521 481,243.13019 481,242.50709 c 0,-0.6231 1.25816,-2.3383 2.79591,-3.81156 l 2.7959,-2.67865 4.71392,4.78588 4.71391,4.78587 -3.30743,3.20569 C 490.89313,250.55744 489.12377,252 488.78032,252 c -0.34346,0 -2.23454,-1.881 -4.2024,-4.18 z m 17.85008,-8.57 c -1.54515,-2.0625 -3.87036,-5.17105 -5.16712,-6.9079 l -2.35776,-3.15789 8.29844,-6.4637 c 20.89366,-16.27418 45.38908,-27.42772 73.22894,-33.34346 9.32328,-1.98112 16.10823,-2.68532 29.8195,-3.09491 L 624,185.7519 v 8.47341 8.4734 l -15.25,0.63054 c -32.11132,1.32771 -60.90793,10.81729 -87.3249,28.77688 -5.5412,3.76719 -10.89844,7.75943 -11.90499,8.87165 -2.5891,2.86093 -3.89224,2.54346 -7.09211,-1.72778 z M 211,231.0499 V 224 h 6.04569 6.04569 l -0.29569,6.75 -0.29569,6.75 -5.75,0.2999 -5.75,0.29991 z M 243,232.5 V 227 h 7 7 v 5.5 5.5 h -7 -7 z m 435.5,4.80237 c -8.62502,-2.31104 -12.93049,-12.37824 -8.91385,-20.84268 4.26225,-8.98202 17.58254,-9.67406 23.76919,-1.23491 2.79391,3.81116 2.83639,11.69773 0.0829,15.38824 -4.09282,5.48559 -9.83471,8.05681 -14.93821,6.68935 z m 6.56574,-9.33755 c 2.21722,-1.18662 2.68837,-6.81071 0.73426,-8.76482 -1.69902,-1.69902 -6.36891,-1.48823 -8.22857,0.37143 -2.14022,2.14021 -1.97371,5.02629 0.42857,7.42857 2.23307,2.23307 4.19534,2.50101 7.06574,0.96482 z m 95.00825,7.84759 c -9.59874,-5.01495 -10.95449,-18.04165 -2.56453,-24.64119 8.99706,-7.07709 23.47901,-0.0913 23.48525,11.32878 0.006,11.73939 -10.78643,18.60715 -20.92072,13.31241 z m 10.09727,-8.4674 C 793.75315,224.10345 791.35157,217 786.67375,217 c -5.24136,0 -7.70742,7.46216 -3.45124,10.4433 2.84547,1.99304 4.66631,1.96729 6.94875,-0.0983 z M 746,235.34677 c -3.11963,-1.24013 -6.99794,-5.81886 -7.58661,-8.95675 C 736.94424,218.55876 742.10439,212 749.73486,212 c 3.72922,0 5.01579,0.55065 7.8062,3.34106 5.55823,5.55823 5.78311,11.02642 0.68795,16.7284 -2.74337,3.0701 -8.72063,4.67197 -12.22901,3.27731 z m 6.83466,-11.22232 c 0.43039,-3.02874 -1.07306,-4.50095 -3.734,-3.6564 -1.3489,0.42813 -2.10066,1.50746 -2.10066,3.016 0,4.06081 5.26648,4.63884 5.83466,0.6404 z M 641,225 v -6 h 5 5 v 6 6 h -5 -5 z m 70,0.0477 v -6.04772 h 6.5499 6.54991 l -0.29991,5.75 -0.2999,5.75 -6.25,0.29772 -6.25,0.29771 z M 815,225 v -6 h 5.5 5.5 v 6 6 H 820.5 815 Z M 242.30433,210.044 c -15.43812,-9.41322 -2.48567,-32.50726 13.62459,-24.29245 4.89695,2.49702 7.23523,6.15284 7.31511,11.43694 0.17113,11.32004 -11.60293,18.5485 -20.9397,12.85551 z m 11.12424,-8.61543 C 256.64505,198.21209 254.21568,193 249.5,193 c -2.71126,0 -5.5,2.40475 -5.5,4.74269 0,4.37156 6.28566,6.82879 9.42857,3.68588 z m 25.41563,7.34279 C 274.77312,205.28958 274,202.85363 274,193.50824 V 184.885 l 4.25,0.3075 4.25,0.3075 0.28149,7.5 c 0.31731,8.45453 1.3945,10 6.97,10 3.28185,0 3.36119,0.0973 3.05888,3.75 L 292.5,210.5 287,210.77136 c -4.51509,0.22277 -5.97558,-0.13538 -8.1558,-2 z m -67.17753,-3.43803 C 211.3,204.96667 211,200.91667 211,196.33333 V 188 h 6.5 6.5 v 4.36043 c 0,2.39823 -0.28617,6.44823 -0.63592,9 L 222.72815,206 h -5.19741 c -2.85857,0 -5.49741,-0.3 -5.86407,-0.66667 z M 641,193 v -6 h 7 7 v 6 6 h -7 -7 z m 71,0 v -6 h 5.5 5.5 v 6 6 h -5.5 -5.5 z m 103.2001,0.25 0.2999,-5.75 h 5.5 5.5 l 0.2999,5.75 0.29991,5.75 H 821 814.90019 Z M 675,192.5 V 187 h 7.5 7.5 v 5.5 5.5 h -7.5 -7.5 z m 69,0 V 187 h 5.5 5.5 v 5.5 5.5 h -5.5 -5.5 z m 44,-0.5 c 0,-4.88889 0.0667,-5 3,-5 2.93333,0 3,0.11111 3,5 0,4.88889 -0.0667,5 -3,5 -2.93333,0 -3,-0.11111 -3,-5 z m -22,-2.5 c 0,-2.33333 0.33333,-2.5 5,-2.5 4.66667,0 5,0.16667 5,2.5 0,2.33333 -0.33333,2.5 -5,2.5 -4.66667,0 -5,-0.16667 -5,-2.5 z"
       id="path183" />
  </g>
</svg>
